<svg width="49" height="45" xmlns="http://www.w3.org/2000/svg" xmlns:xlink="http://www.w3.org/1999/xlink" xml:space="preserve" overflow="hidden"><g transform="translate(-198 -234)"><path d="M13.6111 0C12.1054 0 10.8889 1.21649 10.8889 2.72222 10.8889 4.22795 12.1054 5.44444 13.6111 5.44444L17.9241 5.44444 0.799653 22.5774C-0.263715 23.6408-0.263715 25.3677 0.799653 26.4311 1.86302 27.4944 3.58993 27.4944 4.6533 26.4311L21.7778 9.29809 21.7778 13.6111C21.7778 15.1168 22.9943 16.3333 24.5 16.3333 26.0057 16.3333 27.2222 15.1168 27.2222 13.6111L27.2222 2.72222C27.2222 1.21649 26.0057 0 24.5 0L13.6111 0ZM49 6.80556C49 4.55039 47.1719 2.72222 44.9167 2.72222 42.6615 2.72222 40.8333 4.55039 40.8333 6.80556 40.8333 9.06075 42.6615 10.8889 44.9167 10.8889 47.1719 10.8889 49 9.06075 49 6.80556ZM38.1111 17.6944C38.1111 15.4393 36.283 13.6111 34.0278 13.6111 31.7726 13.6111 29.9444 15.4393 29.9444 17.6944 29.9444 19.9496 31.7726 21.7778 34.0278 21.7778 36.283 21.7778 38.1111 19.9496 38.1111 17.6944ZM34.0278 32.6667C36.283 32.6667 38.1111 30.8385 38.1111 28.5833 38.1111 26.3281 36.283 24.5 34.0278 24.5 31.7726 24.5 29.9444 26.3281 29.9444 28.5833 29.9444 30.8385 31.7726 32.6667 34.0278 32.6667ZM38.1111 39.4722C38.1111 37.217 36.283 35.3889 34.0278 35.3889 31.7726 35.3889 29.9444 37.217 29.9444 39.4722 29.9444 41.7274 31.7726 43.5556 34.0278 43.5556 36.283 43.5556 38.1111 41.7274 38.1111 39.4722ZM49 39.4722C49 37.217 47.1719 35.3889 44.9167 35.3889 42.6615 35.3889 40.8333 37.217 40.8333 39.4722 40.8333 41.7274 42.6615 43.5556 44.9167 43.5556 47.1719 43.5556 49 41.7274 49 39.4722ZM23.1389 32.6667C25.3941 32.6667 27.2222 30.8385 27.2222 28.5833 27.2222 26.3281 25.3941 24.5 23.1389 24.5 20.8837 24.5 19.0556 26.3281 19.0556 28.5833 19.0556 30.8385 20.8837 32.6667 23.1389 32.6667ZM27.2222 39.4722C27.2222 37.217 25.3941 35.3889 23.1389 35.3889 20.8837 35.3889 19.0556 37.217 19.0556 39.4722 19.0556 41.7274 20.8837 43.5556 23.1389 43.5556 25.3941 43.5556 27.2222 41.7274 27.2222 39.4722ZM12.25 43.5556C14.5052 43.5556 16.3333 41.7274 16.3333 39.4722 16.3333 37.217 14.5052 35.3889 12.25 35.3889 9.99481 35.3889 8.16667 37.217 8.16667 39.4722 8.16667 41.7274 9.99481 43.5556 12.25 43.5556ZM49 28.5833C49 26.3281 47.1719 24.5 44.9167 24.5 42.6615 24.5 40.8333 26.3281 40.8333 28.5833 40.8333 30.8385 42.6615 32.6667 44.9167 32.6667 47.1719 32.6667 49 30.8385 49 28.5833ZM44.9167 21.7778C47.1719 21.7778 49 19.9496 49 17.6944 49 15.4393 47.1719 13.6111 44.9167 13.6111 42.6615 13.6111 40.8333 15.4393 40.8333 17.6944 40.8333 19.9496 42.6615 21.7778 44.9167 21.7778Z" fill="#CB4335" transform="matrix(1 0 0 1.03316 198 234)"/></g></svg>