<svg width="50" height="44" xmlns="http://www.w3.org/2000/svg" xmlns:xlink="http://www.w3.org/1999/xlink" xml:space="preserve" overflow="hidden"><g transform="translate(-614 -323)"><path d="M0.335156 1.96797C0.902344 0.764844 2.10547 0 3.4375 0L40.5625 0C41.8945 0 43.0977 0.764844 43.6648 1.96797 44.232 3.17109 44.0602 4.58906 43.218 5.62031L34.0656 16.8094C27.1734 18.2273 22 24.3203 22 31.625 22 33.9797 22.5414 36.2141 23.5039 38.1992 23.3664 38.1305 23.2289 38.0445 23.1 37.95L17.6 33.825C16.9039 33.3094 16.5 32.493 16.5 31.625L16.5 24.8273 0.773438 5.61172C-0.0601562 4.58906-0.240625 3.1625 0.335156 1.96797ZM24.75 31.625C24.75 24.7905 30.2905 19.25 37.125 19.25 43.9595 19.25 49.5 24.7905 49.5 31.625 49.5 38.4595 43.9595 44 37.125 44 30.2905 44 24.75 38.4595 24.75 31.625ZM35.1312 28.8234C35.1828 28.7461 35.2859 28.643 35.4922 28.5312 35.9305 28.2992 36.5664 28.1789 37.0992 28.1875 37.8039 28.1961 38.5687 28.3422 39.368 28.5398 40.107 28.7203 40.8547 28.2734 41.0352 27.5344 41.2156 26.7953 40.7687 26.0477 40.0297 25.8672 39.5484 25.7469 39.0328 25.6352 38.4914 25.5492L38.4914 24.7414C38.4914 23.9852 37.8727 23.3664 37.1164 23.3664 36.3602 23.3664 35.7414 23.9852 35.7414 24.7414L35.7414 25.5578C35.2172 25.6609 34.6844 25.8328 34.1945 26.0992 33.1805 26.6406 32.218 27.6805 32.3211 29.2961 32.407 30.6711 33.3266 31.4703 34.1773 31.9344 34.9336 32.3383 35.8703 32.6047 36.6352 32.8195L36.7898 32.8625C37.675 33.1117 38.3281 33.3094 38.7836 33.5758 39.1703 33.8078 39.1875 33.9367 39.1875 34.057 39.1961 34.2633 39.1445 34.375 39.1016 34.4437 39.05 34.5297 38.9469 34.6328 38.7578 34.7273 38.3539 34.9422 37.7438 35.0539 37.168 35.0367 36.3516 35.0109 35.5781 34.7703 34.5984 34.4523 34.4352 34.4008 34.2719 34.3492 34.1 34.2977 33.3781 34.0742 32.6047 34.4781 32.3812 35.2 32.1578 35.9219 32.5617 36.6953 33.2836 36.9188 33.4211 36.9617 33.5672 37.0047 33.7133 37.0563 33.7133 37.0563 33.7133 37.0563 33.7133 37.0563 33.7133 37.0563 33.7133 37.0563 33.7133 37.0563 34.3148 37.2539 35.0109 37.4688 35.75 37.6234L35.75 38.6031C35.75 39.3594 36.3688 39.9781 37.125 39.9781 37.8812 39.9781 38.5 39.3594 38.5 38.6031L38.5 37.675C39.0328 37.5805 39.5742 37.4086 40.0727 37.1422 41.1125 36.5836 41.9891 35.5352 41.9375 33.9711 41.8945 32.5789 41.0523 31.7109 40.1758 31.1953 39.368 30.7141 38.3539 30.4305 37.5547 30.207L37.5375 30.207C36.6437 29.9578 35.9648 29.7602 35.4836 29.5023 35.0711 29.2789 35.0711 29.1586 35.0711 29.1156 35.0711 29.1156 35.0711 29.1156 35.0711 29.107 35.0625 28.9437 35.0969 28.8578 35.1398 28.7977Z" fill="#17A389" transform="matrix(1.0101 0 0 1 614 323)"/></g></svg>