<svg width="50" height="45" xmlns="http://www.w3.org/2000/svg" xmlns:xlink="http://www.w3.org/1999/xlink" xml:space="preserve" overflow="hidden"><defs><clipPath id="clip0"><rect x="195" y="407" width="50" height="45"/></clipPath></defs><g clip-path="url(#clip0)" transform="translate(-195 -407)"><path d="M5.43403 0.199653C4.01042-0.373264 2.39583 0.3125 1.81424 1.73611 0.642361 4.63542 0 7.80382 0 11.1111 0 14.4184 0.642361 17.5868 1.81424 20.4861 2.38715 21.9097 4.01042 22.5955 5.43403 22.0226 6.85764 21.4497 7.5434 19.8264 6.97049 18.4028 6.05903 16.1545 5.55556 13.6979 5.55556 11.1111 5.55556 8.52431 6.05903 6.06771 6.97049 3.81944 7.5434 2.39583 6.85764 0.78125 5.43403 0.199653ZM44.566 0.199653C43.1424 0.78125 42.4566 2.39583 43.0295 3.81944 43.941 6.06771 44.4444 8.52431 44.4444 11.1111 44.4444 13.6979 43.941 16.1545 43.0295 18.4028 42.4566 19.8264 43.1424 21.441 44.566 22.0226 45.9896 22.6042 47.6042 21.9097 48.1858 20.4861 49.3576 17.5868 50 14.4184 50 11.1111 50 7.80382 49.3576 4.63542 48.1858 1.73611 47.6042 0.3125 45.9896-0.373264 44.566 0.199653ZM29.5226 14.3403C30.1736 13.4288 30.5556 12.3177 30.5556 11.1111 30.5556 8.04687 28.0642 5.55556 25 5.55556 21.9358 5.55556 19.4444 8.04687 19.4444 11.1111 19.4444 12.3177 19.8264 13.4288 20.4774 14.3403L8.58507 40.5208C7.95139 41.9184 8.56771 43.5677 9.96528 44.2014 11.3628 44.8351 13.0122 44.2187 13.6458 42.8212L15.4253 38.8889 34.5746 38.8889 36.3628 42.8125C36.9965 44.2101 38.6458 44.8264 40.0434 44.1927 41.441 43.559 42.0573 41.9097 41.4236 40.5122L29.5226 14.3403ZM32.0486 33.3333 17.9514 33.3333 19.2101 30.5556 30.7812 30.5556 32.0399 33.3333ZM25 17.8212 28.2639 25 21.7361 25 25 17.8212ZM14.1753 6.38889C14.6354 5.33854 14.158 4.1059 13.099 3.64583 12.0399 3.18576 10.816 3.66319 10.3559 4.72222 9.50521 6.68403 9.02778 8.84549 9.02778 11.1111 9.02778 13.3767 9.50521 15.5382 10.3559 17.5 10.816 18.5503 12.0486 19.0365 13.099 18.5764 14.1493 18.1163 14.6354 16.8837 14.1753 15.8333 13.5417 14.3924 13.1944 12.7951 13.1944 11.1111 13.1944 9.42708 13.5417 7.82986 14.1753 6.38889ZM39.6441 4.72222C39.184 3.67187 37.9514 3.18576 36.901 3.64583 35.8507 4.1059 35.3646 5.33854 35.8247 6.38889 36.4583 7.82986 36.8056 9.42708 36.8056 11.1111 36.8056 12.7951 36.4583 14.3924 35.8247 15.8333 35.3646 16.8837 35.842 18.1163 36.901 18.5764 37.9601 19.0365 39.184 18.559 39.6441 17.5 40.4948 15.5382 40.9722 13.3767 40.9722 11.1111 40.9722 8.84549 40.4948 6.68403 39.6441 4.72222Z" fill="#2E86C1" transform="matrix(1 0 0 1.0125 195 407)"/></g></svg>