<svg width="50" height="45" xmlns="http://www.w3.org/2000/svg" xmlns:xlink="http://www.w3.org/1999/xlink" xml:space="preserve" overflow="hidden"><g transform="translate(-614 -234)"><path d="M5.55556 2.77778C4.0191 2.77778 2.77778 4.0191 2.77778 5.55556L2.77778 26.3889 2.77778 30.5556 2.77778 37.5C2.77778 39.8003 4.6441 41.6667 6.94444 41.6667L43.0556 41.6667C45.3559 41.6667 47.2222 39.8003 47.2222 37.5L47.2222 26.3889 47.2222 13.2118C47.2222 11.6319 45.5382 10.6337 44.1493 11.3802L30.5556 18.6979 30.5556 13.2118C30.5556 11.6319 28.8715 10.6337 27.4826 11.3802L13.8889 18.6979 13.8889 5.55556C13.8889 4.0191 12.6476 2.77778 11.1111 2.77778L5.55556 2.77778Z" fill="#D68910" transform="matrix(1 0 0 1.0125 614 234)"/></g></svg>