<svg width="50" height="45" xmlns="http://www.w3.org/2000/svg" xmlns:xlink="http://www.w3.org/1999/xlink" xml:space="preserve" overflow="hidden"><g transform="translate(-614 -404)"><path d="M26.3889 20.8333 26.3889 1.44097C26.3889 0.659722 26.9965 -6.16791e-16 27.7778 -6.16791e-16 38.5156 0 47.2222 8.7066 47.2222 19.4444 47.2222 20.2257 46.5625 20.8333 45.7812 20.8333L26.3889 20.8333ZM2.77778 23.6111C2.77778 13.0816 10.599 4.36632 20.7465 2.97743 21.5451 2.86458 22.2222 3.50694 22.2222 4.31424L22.2222 25 35.8073 38.5851C36.3889 39.1667 36.3455 40.1215 35.6771 40.5903 32.2743 43.0208 28.1076 44.4444 23.6111 44.4444 12.1094 44.4444 2.77778 35.1215 2.77778 23.6111ZM48.4722 25C49.2795 25 49.9132 25.6771 49.809 26.4757 49.1406 31.3281 46.8056 35.6424 43.3941 38.8281 42.8733 39.3142 42.0573 39.2795 41.5538 38.7674L27.7778 25 48.4722 25Z" fill="#2471A3" transform="matrix(1 0 0 1.0125 614 404)"/></g></svg>