<svg width="49" height="40" xmlns="http://www.w3.org/2000/svg" xmlns:xlink="http://www.w3.org/1999/xlink" xml:space="preserve" overflow="hidden"><defs><clipPath id="clip0"><rect x="194" y="326" width="49" height="40"/></clipPath></defs><g clip-path="url(#clip0)" transform="translate(-194 -326)"><path d="M0.719687 0.719687C1.67672-0.237344 3.22328-0.237344 4.18031 0.719687L12.25 8.78172 12.25 7.35C12.25 5.99484 13.3448 4.9 14.7 4.9 16.0552 4.9 17.15 5.99484 17.15 7.35L17.15 14.7C17.15 15.0292 17.0811 15.3508 16.9663 15.6341 16.8438 15.9173 16.6753 16.193 16.438 16.4227L16.4303 16.4303C16.193 16.66 15.925 16.8361 15.6417 16.9586 15.3508 17.0811 15.0369 17.1423 14.7077 17.1423L7.35766 17.1423C6.0025 17.1423 4.90766 16.0475 4.90766 14.6923 4.90766 13.3372 6.0025 12.2423 7.35766 12.2423L8.78938 12.2423 0.719687 4.18031C-0.237344 3.22328-0.237344 1.67672 0.719687 0.719687ZM19.6 19.6C19.6 16.8938 21.7938 14.7 24.5 14.7 27.2062 14.7 29.4 16.8938 29.4 19.6 29.4 22.3062 27.2062 24.5 24.5 24.5 21.7938 24.5 19.6 22.3062 19.6 19.6ZM8.78172 26.95 7.35 26.95C5.99484 26.95 4.9 25.8552 4.9 24.5 4.9 23.1448 5.99484 22.05 7.35 22.05L14.7 22.05C14.7 22.05 14.7 22.05 14.7 22.05L14.7077 22.05C15.3814 22.05 15.9863 22.3256 16.4303 22.762L16.438 22.7697C16.6677 23.007 16.8438 23.275 16.9663 23.5583 17.0888 23.8492 17.15 24.1631 17.15 24.4923L17.15 31.8423C17.15 33.1975 16.0552 34.2923 14.7 34.2923 13.3448 34.2923 12.25 33.1975 12.25 31.8423L12.25 30.4106 4.18031 38.4803C3.22328 39.4373 1.66906 39.4373 0.712031 38.4803-0.245 37.5233-0.245 35.9691 0.712031 35.012L8.78172 26.95ZM31.85 7.35C31.85 5.99484 32.9448 4.9 34.3 4.9 35.6552 4.9 36.75 5.99484 36.75 7.35L36.75 8.78172 44.8197 0.719687C45.7767-0.237344 47.3309-0.237344 48.288 0.719687 49.245 1.67672 49.245 3.23094 48.288 4.18797L40.2183 12.25 41.65 12.25C43.0052 12.25 44.1 13.3448 44.1 14.7 44.1 16.0552 43.0052 17.15 41.65 17.15L34.3 17.15C33.6263 17.15 33.0138 16.8744 32.5697 16.438L32.562 16.4303C32.3323 16.193 32.1562 15.925 32.0337 15.6417 31.9112 15.3584 31.85 15.0445 31.85 14.7077L31.85 14.7C31.85 14.7 31.85 14.7 31.85 14.7L31.85 7.35ZM40.2183 26.95 48.2803 35.0197C49.2373 35.9767 49.2373 37.5309 48.2803 38.488 47.3233 39.445 45.7691 39.445 44.812 38.488L36.75 30.4183 36.75 31.85C36.75 33.2052 35.6552 34.3 34.3 34.3 32.9448 34.3 31.85 33.2052 31.85 31.85L31.85 24.5C31.85 24.5 31.85 24.5 31.85 24.5L31.85 24.4923C31.85 24.1631 31.9189 23.8492 32.0337 23.5583 32.1562 23.2673 32.3323 22.9994 32.562 22.762 33.0061 22.318 33.6109 22.05 34.2847 22.0423L34.2923 22.0423C34.2923 22.0423 34.2923 22.0423 34.2923 22.0423L41.6423 22.0423C42.9975 22.0423 44.0923 23.1372 44.0923 24.4923 44.0923 25.8475 42.9975 26.9423 41.6423 26.9423L40.2106 26.9423Z" fill="#884EA0" transform="matrix(1 0 0 1.02041 194 326)"/></g></svg>